<svg xmlns="http://www.w3.org/2000/svg" xmlns:xlink="http://www.w3.org/1999/xlink" width="1000" zoomAndPan="magnify" viewBox="0 0 750 374.999991" height="500" preserveAspectRatio="xMidYMid meet" version="1.0"><defs><g/></defs><g fill="#ffffff" fill-opacity="1"><g transform="translate(46.270013, 227.60889)"><g><path d="M 11.234375 0 C 12.097656 0.109375 12.855469 -0.214844 13.070312 -1.082031 L 19.550781 -25.277344 L 37.375 -26.898438 C 38.132812 -27.003906 38.78125 -27.546875 38.78125 -28.300781 C 38.78125 -33.164062 34.027344 -36.621094 27.871094 -35.972656 L 22.144531 -35.324219 L 29.8125 -64.058594 L 30.136719 -65.460938 C 35.214844 -66.109375 40.941406 -66.757812 44.074219 -66.867188 L 50.988281 -67.082031 C 52.175781 -67.082031 52.929688 -68.054688 52.605469 -69.242188 C 51.417969 -73.347656 48.933594 -77.34375 43.75 -77.34375 C 38.347656 -77.34375 34.027344 -75.617188 23.765625 -75.617188 L 20.847656 -75.617188 L 17.285156 -75.832031 C 16.09375 -76.046875 15.125 -75.183594 15.339844 -73.996094 C 15.769531 -71.511719 16.742188 -68.488281 18.472656 -66.542969 L 3.78125 -11.34375 C 2.375 -6.050781 5.292969 -0.757812 11.234375 0 Z M 11.234375 0 "/></g></g></g><g fill="#ffffff" fill-opacity="1"><g transform="translate(87.102426, 227.60889)"><g><path d="M 2.808594 6.050781 C 3.242188 6.050781 3.671875 5.507812 3.890625 4.859375 L 18.796875 -43.640625 L 24.953125 -44.722656 C 26.574219 -45.046875 27.652344 -43.855469 27.222656 -42.238281 L 21.820312 -24.304688 C 17.066406 -8.640625 20.742188 1.726562 30.894531 1.726562 C 41.589844 1.726562 47.3125 -5.507812 51.09375 -18.578125 C 51.742188 -20.847656 50.988281 -22.578125 48.609375 -24.089844 C 48.285156 -24.304688 47.855469 -24.195312 47.746094 -23.765625 C 43.101562 -8.535156 38.132812 -7.238281 34.675781 -7.238281 C 30.355469 -7.238281 30.03125 -10.371094 32.300781 -18.578125 L 37.808594 -38.996094 C 40.726562 -50.015625 38.886719 -54.011719 33.378906 -54.550781 C 27.976562 -54.550781 20.09375 -49.472656 18.796875 -49.257812 C 21.066406 -51.527344 23.550781 -62.4375 18.148438 -62.4375 C 13.394531 -62.4375 11.125 -59.195312 9.722656 -54.875 C 8.535156 -51.3125 8.101562 -46.773438 10.910156 -42.992188 L -1.835938 -7.238281 C -4.644531 0.648438 -1.621094 5.507812 2.808594 6.050781 Z M 2.808594 6.050781 "/></g></g></g><g fill="#ffffff" fill-opacity="1"><g transform="translate(130.635386, 227.60889)"><g><path d="M 50.769531 -24.089844 C 50.445312 -24.304688 50.015625 -24.195312 49.90625 -23.65625 C 45.585938 -8.535156 36.835938 -7.238281 29.058594 -7.238281 C 22.035156 -7.238281 16.527344 -9.613281 15.664062 -17.175781 C 16.417969 -16.960938 17.285156 -16.851562 18.257812 -16.636719 C 26.683594 -15.125 36.1875 -19.445312 42.34375 -31.976562 C 48.179688 -43.855469 44.074219 -55.089844 33.269531 -54.660156 C 22.035156 -57.578125 10.800781 -51.527344 5.402344 -31.542969 C -2.808594 -1.296875 17.609375 1.726562 25.277344 1.726562 C 41.046875 1.726562 49.582031 -6.265625 53.253906 -18.578125 C 53.902344 -20.847656 53.148438 -22.578125 50.769531 -24.089844 Z M 28.519531 -49.152344 C 35.214844 -47.746094 35.863281 -43.640625 32.621094 -35.539062 C 29.058594 -27.976562 26.359375 -24.089844 16.09375 -24.84375 C 16.417969 -26.574219 16.851562 -28.410156 17.390625 -30.355469 C 20.847656 -42.128906 23.550781 -48.609375 28.519531 -49.152344 Z M 28.519531 -49.152344 "/></g></g></g><g fill="#ffffff" fill-opacity="1"><g transform="translate(176.328804, 227.60889)"><g><path d="M 48.394531 -24.089844 C 48.070312 -24.304688 47.636719 -24.195312 47.53125 -23.765625 C 44.074219 -12.640625 36.511719 -7.453125 30.246094 -5.941406 C 32.621094 -9.183594 34.890625 -13.933594 35.429688 -22.792969 C 35.753906 -29.382812 35.109375 -41.046875 30.246094 -49.582031 C 32.082031 -51.960938 33.054688 -54.335938 33.488281 -56.496094 C 34.242188 -60.277344 31.976562 -61.355469 28.300781 -61.355469 C 24.414062 -61.355469 21.820312 -58.65625 20.417969 -54.660156 C 18.6875 -49.691406 14.042969 -41.804688 3.023438 -22.359375 C 2.917969 -23.550781 2.917969 -24.738281 2.808594 -25.925781 C 2.699219 -26.898438 1.945312 -27.652344 1.082031 -27.546875 C -2.699219 -26.898438 -5.726562 -24.304688 -5.726562 -18.578125 C -5.726562 -6.914062 3.242188 1.621094 19.445312 1.621094 C 33.488281 1.621094 45.371094 -1.726562 50.878906 -18.578125 C 51.527344 -20.847656 50.769531 -22.578125 48.394531 -24.089844 Z M 13.71875 -4.753906 C 8.75 -4.753906 6.15625 -7.453125 4.753906 -11.992188 L 22.792969 -45.371094 C 29.492188 -27.976562 21.605469 -4.753906 13.71875 -4.753906 Z M 13.71875 -4.753906 "/></g></g></g><g fill="#ffffff" fill-opacity="1"><g transform="translate(219.645732, 227.60889)"><g><path d="M 50.769531 -24.089844 C 50.445312 -24.304688 50.015625 -24.195312 49.90625 -23.65625 C 45.585938 -8.535156 36.835938 -7.238281 29.058594 -7.238281 C 18.902344 -7.238281 12.097656 -12.207031 17.390625 -30.355469 C 20.742188 -41.804688 23.441406 -48.179688 28.195312 -49.152344 C 36.1875 -48.71875 36.1875 -42.453125 32.515625 -29.058594 C 32.191406 -27.871094 32.300781 -26.464844 34.675781 -26.464844 C 38.347656 -26.464844 42.453125 -27.871094 44.398438 -34.890625 C 48.070312 -48.285156 41.15625 -58.765625 29.921875 -55.089844 C 18.578125 -56.386719 10.046875 -49.796875 5.402344 -31.542969 C -1.511719 -4.535156 11.125 1.726562 25.277344 1.726562 C 41.046875 1.726562 49.582031 -6.265625 53.253906 -18.578125 C 53.902344 -20.847656 53.148438 -22.578125 50.769531 -24.089844 Z M 50.769531 -24.089844 "/></g></g></g><g fill="#ffffff" fill-opacity="1"><g transform="translate(265.339151, 227.60889)"><g><path d="M 21.496094 1.511719 C 34.242188 1.40625 40.726562 -7.886719 45.800781 -25.167969 C 51.527344 -44.613281 44.179688 -59.84375 30.460938 -54.984375 C 18.039062 -55.957031 9.832031 -45.371094 4.96875 -29.167969 C -1.40625 -7.992188 5.183594 4.214844 21.496094 1.511719 Z M 18.472656 -4.105469 C 12.53125 -6.914062 13.394531 -17.390625 16.527344 -27.871094 C 20.632812 -41.480469 23.441406 -48.394531 28.519531 -49.152344 C 38.023438 -49.042969 37.484375 -36.835938 34.242188 -26.464844 C 28.734375 -8.75 25.492188 -2.375 18.472656 -4.105469 Z M 18.472656 -4.105469 "/></g></g></g><g fill="#ffffff" fill-opacity="1"><g transform="translate(312.760913, 227.60889)"><g/></g></g><g fill="#ffffff" fill-opacity="1"><g transform="translate(339.76646, 227.60889)"><g><path d="M 6.589844 1.40625 C 7.34375 1.511719 7.992188 0.972656 8.210938 0.214844 L 21.710938 -57.46875 L 21.605469 -7.5625 C 21.605469 -2.375 25.710938 1.296875 30.894531 1.296875 L 31.433594 1.296875 L 61.464844 -59.519531 L 47.421875 -11.449219 C 45.476562 -4.753906 48.609375 -0.539062 55.308594 0 C 56.0625 0 56.710938 -0.539062 56.929688 -1.1875 L 72.265625 -62.328125 C 74.429688 -71.296875 70.648438 -77.453125 62.976562 -77.777344 C 60.925781 -77.882812 60.386719 -77.34375 59.195312 -74.96875 L 31.652344 -19.875 L 31.542969 -63.195312 C 31.542969 -73.671875 29.058594 -77.453125 18.257812 -76.914062 C 17.609375 -76.804688 17.066406 -76.371094 16.851562 -75.722656 L -0.972656 -10.152344 C -2.375 -4.859375 0.539062 0.324219 6.589844 1.40625 Z M 6.589844 1.40625 "/></g></g></g><g fill="#ffffff" fill-opacity="1"><g transform="translate(406.20015, 227.60889)"><g><path d="M 57.144531 -24.089844 C 56.820312 -24.304688 56.386719 -24.195312 56.28125 -23.765625 C 51.636719 -8.535156 46.664062 -7.238281 43.210938 -7.238281 C 38.886719 -7.238281 38.347656 -10.371094 40.832031 -18.578125 L 47.207031 -39.96875 C 50.664062 -51.742188 47.960938 -55.523438 41.480469 -55.523438 C 40.832031 -55.523438 40.292969 -55.089844 40.078125 -54.445312 L 38.78125 -50.339844 C 36.945312 -54.335938 33.59375 -56.0625 30.460938 -54.984375 C 18.039062 -55.957031 9.832031 -45.371094 4.96875 -29.167969 C -1.621094 -7.128906 6.15625 6.375 21.496094 0 C 23.765625 0 25.710938 -1.726562 27.546875 -4.429688 C 28.949219 0.214844 33.054688 1.726562 39.429688 1.726562 C 50.121094 1.726562 55.632812 -6.265625 59.628906 -18.578125 C 60.277344 -20.847656 59.519531 -22.578125 57.144531 -24.089844 Z M 18.472656 -5.507812 C 12.53125 -8.316406 13.394531 -17.390625 16.527344 -27.871094 C 20.632812 -41.480469 26.25 -48.070312 31.109375 -48.070312 C 36.1875 -48.070312 35.863281 -41.804688 32.839844 -32.082031 L 30.355469 -24.304688 C 29.492188 -21.710938 28.84375 -19.445312 28.300781 -17.285156 C 26.035156 -10.371094 21.820312 -4.644531 18.472656 -5.507812 Z M 18.472656 -5.507812 "/></g></g></g><g fill="#ffffff" fill-opacity="1"><g transform="translate(458.266869, 227.60889)"><g><path d="M 52.824219 -24.089844 C 52.5 -24.304688 52.066406 -24.195312 51.960938 -23.765625 C 47.3125 -8.535156 42.34375 -7.238281 38.886719 -7.238281 C 31.757812 -7.238281 26.683594 -20.523438 27.871094 -28.949219 C 34.890625 -30.894531 40.617188 -34.785156 42.992188 -41.589844 C 45.585938 -48.71875 42.34375 -52.929688 36.726562 -54.875 C 35.753906 -55.199219 34.785156 -54.550781 34.566406 -53.578125 C 31.433594 -39.105469 25.492188 -34.890625 18.902344 -32.621094 L 29.273438 -69.027344 C 30.894531 -74.644531 27.222656 -79.722656 21.605469 -80.476562 C 20.847656 -80.585938 20.199219 -80.046875 19.984375 -79.398438 L 0.214844 -9.832031 C -1.40625 -4.320312 1.945312 0.648438 7.886719 1.621094 C 8.640625 1.726562 9.289062 1.296875 9.507812 0.433594 L 17.609375 -28.085938 C 17.933594 -7.992188 23.875 1.726562 35.109375 1.726562 C 45.800781 1.726562 51.3125 -6.265625 55.308594 -18.578125 C 55.957031 -20.847656 55.199219 -22.578125 52.824219 -24.089844 Z M 52.824219 -24.089844 "/></g></g></g><g fill="#ffffff" fill-opacity="1"><g transform="translate(506.012705, 227.60889)"><g><path d="M 57.144531 -24.089844 C 56.820312 -24.304688 56.386719 -24.195312 56.28125 -23.765625 C 51.636719 -8.535156 46.664062 -7.238281 43.210938 -7.238281 C 38.886719 -7.238281 38.347656 -10.371094 40.832031 -18.578125 L 47.207031 -39.96875 C 50.664062 -51.742188 47.960938 -55.523438 41.480469 -55.523438 C 40.832031 -55.523438 40.292969 -55.089844 40.078125 -54.445312 L 38.78125 -50.339844 C 36.945312 -54.335938 33.59375 -56.0625 30.460938 -54.984375 C 18.039062 -55.957031 9.832031 -45.371094 4.96875 -29.167969 C -1.621094 -7.128906 6.15625 6.375 21.496094 0 C 23.765625 0 25.710938 -1.726562 27.546875 -4.429688 C 28.949219 0.214844 33.054688 1.726562 39.429688 1.726562 C 50.121094 1.726562 55.632812 -6.265625 59.628906 -18.578125 C 60.277344 -20.847656 59.519531 -22.578125 57.144531 -24.089844 Z M 18.472656 -5.507812 C 12.53125 -8.316406 13.394531 -17.390625 16.527344 -27.871094 C 20.632812 -41.480469 26.25 -48.070312 31.109375 -48.070312 C 36.1875 -48.070312 35.863281 -41.804688 32.839844 -32.082031 L 30.355469 -24.304688 C 29.492188 -21.710938 28.84375 -19.445312 28.300781 -17.285156 C 26.035156 -10.371094 21.820312 -4.644531 18.472656 -5.507812 Z M 18.472656 -5.507812 "/></g></g></g><g fill="#ffffff" fill-opacity="1"><g transform="translate(558.079424, 227.60889)"><g><path d="M 2.808594 6.050781 C 3.242188 6.050781 3.671875 5.507812 3.890625 4.859375 L 18.796875 -43.640625 L 24.953125 -44.722656 C 26.574219 -45.046875 27.652344 -43.855469 27.222656 -42.238281 L 21.820312 -24.304688 C 17.066406 -8.640625 20.742188 1.726562 30.894531 1.726562 C 41.589844 1.726562 47.3125 -5.507812 51.09375 -18.578125 C 51.742188 -20.847656 50.988281 -22.578125 48.609375 -24.089844 C 48.285156 -24.304688 47.855469 -24.195312 47.746094 -23.765625 C 43.101562 -8.535156 38.132812 -7.238281 34.675781 -7.238281 C 30.355469 -7.238281 30.03125 -10.371094 32.300781 -18.578125 L 37.808594 -38.996094 C 40.726562 -50.015625 38.886719 -54.011719 33.378906 -54.550781 C 27.976562 -54.550781 20.09375 -49.472656 18.796875 -49.257812 C 21.066406 -51.527344 23.550781 -62.4375 18.148438 -62.4375 C 13.394531 -62.4375 11.125 -59.195312 9.722656 -54.875 C 8.535156 -51.3125 8.101562 -46.773438 10.910156 -42.992188 L -1.835938 -7.238281 C -4.644531 0.648438 -1.621094 5.507812 2.808594 6.050781 Z M 2.808594 6.050781 "/></g></g></g><g fill="#ffffff" fill-opacity="1"><g transform="translate(601.612401, 227.60889)"><g><path d="M 37.375 1.726562 C 48.070312 1.726562 53.578125 -5.617188 57.578125 -18.578125 C 58.222656 -20.847656 57.46875 -22.578125 55.089844 -24.089844 C 54.769531 -24.304688 54.335938 -24.195312 54.226562 -23.765625 C 49.582031 -8.535156 44.613281 -7.238281 41.15625 -7.238281 C 36.835938 -7.238281 36.511719 -10.371094 38.78125 -18.578125 L 44.289062 -38.996094 C 47.3125 -50.230469 45.261719 -54.121094 39.535156 -54.550781 C 31.652344 -57.46875 24.304688 -55.308594 20.09375 -47.960938 C 19.550781 -51.960938 18.148438 -55.632812 13.933594 -55.738281 C 13.179688 -55.738281 12.53125 -55.199219 12.316406 -54.550781 L -0.863281 -9.832031 C -2.375 -4.535156 0.648438 0.539062 6.480469 1.511719 C 7.453125 1.726562 8.210938 1.1875 8.425781 0.324219 C 16.960938 -36.402344 23.007812 -46.664062 31.867188 -47.746094 C 33.164062 -47.960938 35.109375 -46.664062 34.675781 -45.371094 L 28.300781 -24.304688 C 22.035156 -3.671875 25.386719 1.726562 37.375 1.726562 Z M 37.375 1.726562 "/></g></g></g><g fill="#ffffff" fill-opacity="1"><g transform="translate(651.626686, 227.60889)"><g><path d="M 57.144531 -24.089844 C 56.820312 -24.304688 56.386719 -24.195312 56.28125 -23.765625 C 51.636719 -8.535156 46.664062 -7.238281 43.210938 -7.238281 C 38.886719 -7.238281 38.347656 -10.371094 40.832031 -18.578125 L 47.207031 -39.96875 C 50.664062 -51.742188 47.960938 -55.523438 41.480469 -55.523438 C 40.832031 -55.523438 40.292969 -55.089844 40.078125 -54.445312 L 38.78125 -50.339844 C 36.945312 -54.335938 33.59375 -56.0625 30.460938 -54.984375 C 18.039062 -55.957031 9.832031 -45.371094 4.96875 -29.167969 C -1.621094 -7.128906 6.15625 6.375 21.496094 0 C 23.765625 0 25.710938 -1.726562 27.546875 -4.429688 C 28.949219 0.214844 33.054688 1.726562 39.429688 1.726562 C 50.121094 1.726562 55.632812 -6.265625 59.628906 -18.578125 C 60.277344 -20.847656 59.519531 -22.578125 57.144531 -24.089844 Z M 18.472656 -5.507812 C 12.53125 -8.316406 13.394531 -17.390625 16.527344 -27.871094 C 20.632812 -41.480469 26.25 -48.070312 31.109375 -48.070312 C 36.1875 -48.070312 35.863281 -41.804688 32.839844 -32.082031 L 30.355469 -24.304688 C 29.492188 -21.710938 28.84375 -19.445312 28.300781 -17.285156 C 26.035156 -10.371094 21.820312 -4.644531 18.472656 -5.507812 Z M 18.472656 -5.507812 "/></g></g></g></svg>